PathFileType	4	(X/Y/Z)	 New Session 109.trc
DataRate	CameraRate	NumFrames	NumMarkers	Units	OrigDataRate	OrigDataStartFrame	OrigNumFrames
100	100	9	14	m	100	571	1141
Frame#	Time	C7			T8			IJ			PX			AA			AC			AI			TS			SC			GH			LE			ME			US			RS			
		X1	Y1	Z1	X2	Y2	Z2	X3	Y3	Z3	X4	Y4	Z4	X5	Y5	Z5	X6	Y6	Z6	X7	Y7	Z7	X8	Y8	Z8	X9	Y9	Z9	X10	Y10	Z10	X11	Y11	Z11	X12	Y12	Z12	X13	Y13	Z13	X14	Y14	Z14	
571	5.7100	0.014765	0.114029	0.131152	0.027777	-0.091217	0.222099	-0.009903	-0.007620	-0.022360	-0.002005	-0.155729	-0.072925	0.214251	0.049387	0.086073	0.138994	0.081969	0.034651	0.106250	0.050089	0.168878	0.117312	-0.067036	0.200715	0.014092	0.002545	-0.020375	0.206142	0.071208	0.046159	0.292267	-0.068661	-0.190671	0.233219	-0.142942	-0.196350	0.214261	-0.068410	-0.464214	0.199766	0.006666	-0.450523	
572	5.7200	0.015219	0.113981	0.131352	0.028260	-0.091194	0.222209	-0.009770	-0.007552	-0.022115	-0.001890	-0.155771	-0.072569	0.214641	0.050053	0.084686	0.138636	0.082375	0.034262	0.107186	0.050269	0.168568	0.118150	-0.066806	0.200165	0.014013	0.002572	-0.020199	0.205721	0.072082	0.044980	0.289175	-0.063196	-0.195221	0.230401	-0.137157	-0.201000	0.214503	-0.064830	-0.470144	0.199113	0.010224	-0.457054	
573	5.7300	0.015694	0.113942	0.131552	0.028751	-0.091162	0.222309	-0.009676	-0.007491	-0.021911	-0.001774	-0.155793	-0.072264	0.215014	0.050687	0.083285	0.138305	0.082807	0.033861	0.108039	0.050415	0.168189	0.118974	-0.066578	0.199579	0.013953	0.002623	-0.020026	0.205269	0.072904	0.043800	0.285924	-0.057662	-0.199583	0.227470	-0.131444	-0.205503	0.215048	-0.061386	-0.475756	0.198481	0.013570	-0.463372	
574	5.7400	0.016187	0.113905	0.131748	0.029238	-0.091116	0.222401	-0.009625	-0.007411	-0.021744	-0.001661	-0.155794	-0.072014	0.215357	0.051317	0.081875	0.137980	0.083335	0.033423	0.108809	0.050516	0.167762	0.119761	-0.066350	0.198947	0.013887	0.002703	-0.019853	0.204822	0.073728	0.042651	0.282561	-0.052046	-0.203758	0.224434	-0.125830	-0.209863	0.215828	-0.058074	-0.481042	0.197937	0.016694	-0.469483	
575	5.7500	0.016683	0.113863	0.131953	0.029705	-0.091057	0.222488	-0.009613	-0.007292	-0.021600	-0.001555	-0.155769	-0.071809	0.215669	0.051955	0.080461	0.137629	0.083996	0.032940	0.109543	0.050573	0.167294	0.120504	-0.066125	0.198263	0.013793	0.002783	-0.019670	0.204405	0.074611	0.041533	0.279158	-0.046396	-0.207760	0.221307	-0.120337	-0.214068	0.216731	-0.054922	-0.486032	0.197517	0.019598	-0.475379	
576	5.7600	0.017165	0.113817	0.132171	0.030141	-0.090989	0.222579	-0.009664	-0.007133	-0.021479	-0.001461	-0.155715	-0.071635	0.215950	0.052582	0.079034	0.137263	0.084730	0.032430	0.110283	0.050593	0.166774	0.121219	-0.065910	0.197534	0.013690	0.002870	-0.019498	0.203988	0.075544	0.040405	0.275772	-0.040805	-0.211613	0.218117	-0.114976	-0.218107	0.217624	-0.051979	-0.490772	0.197221	0.022294	-0.481050	
577	5.7700	0.017633	0.113766	0.132390	0.030539	-0.090912	0.222686	-0.009807	-0.006951	-0.021378	-0.001380	-0.155630	-0.071470	0.216194	0.053181	0.077556	0.136931	0.085406	0.031913	0.111029	0.050574	0.166193	0.121932	-0.065712	0.196767	0.013612	0.003002	-0.019374	0.203523	0.076458	0.039237	0.272422	-0.035380	-0.215332	0.214898	-0.109746	-0.221976	0.218438	-0.049261	-0.495285	0.197016	0.024800	-0.486495	
578	5.7800	0.018115	0.113717	0.132587	0.030900	-0.090827	0.222808	-0.010013	-0.006760	-0.021278	-0.001314	-0.155524	-0.071294	0.216398	0.053746	0.075983	0.136652	0.085976	0.031360	0.111781	0.050507	0.165542	0.122652	-0.065527	0.195967	0.013559	0.003189	-0.019297	0.202995	0.077297	0.038014	0.269120	-0.030209	-0.218928	0.211675	-0.104640	-0.225683	0.219213	-0.046748	-0.499575	0.196848	0.027144	-0.491729	
579	5.7900	0.018648	0.113676	0.132746	0.031232	-0.090732	0.222930	-0.010252	-0.006582	-0.021159	-0.001266	-0.155410	-0.071095	0.216583	0.054291	0.074288	0.136385	0.086472	0.030708	0.112569	0.050402	0.164807	0.123369	-0.065333	0.195148	0.013489	0.003435	-0.019245	0.202422	0.078061	0.036712	0.265866	-0.025327	-0.222416	0.208459	-0.099658	-0.229238	0.220068	-0.044388	-0.503638	0.196679	0.029361	-0.496763	
